<mxfile host="app.diagrams.net" modified="2021-09-24T09:41:33.536Z" agent="5.0 (Macintosh; Intel Mac OS X 10_15_7) AppleWebKit/537.36 (KHTML, like Gecko) Chrome/94.0.4606.54 Safari/537.36" etag="GUc18VLmesOJZ338RVjT" version="15.3.1" type="github">
  <diagram id="LfZymVAFYyp6aVwLxHgt" name="Page-1">
    <mxGraphModel dx="2066" dy="2235" grid="1" gridSize="10" guides="1" tooltips="1" connect="1" arrows="1" fold="1" page="1" pageScale="1" pageWidth="827" pageHeight="1169" math="0" shadow="0">
      <root>
        <mxCell id="0" />
        <mxCell id="1" parent="0" />
        <mxCell id="7EBTmmeYs9aogz_d6NEe-1" value="DB" style="shape=cylinder3;whiteSpace=wrap;html=1;boundedLbl=1;backgroundOutline=1;size=15;" parent="1" vertex="1">
          <mxGeometry x="370" y="120" width="60" height="80" as="geometry" />
        </mxCell>
        <mxCell id="7EBTmmeYs9aogz_d6NEe-2" value="canal" style="ellipse;whiteSpace=wrap;html=1;" parent="1" vertex="1">
          <mxGeometry x="140" y="130" width="120" height="80" as="geometry" />
        </mxCell>
        <mxCell id="7EBTmmeYs9aogz_d6NEe-3" value="kafka" style="ellipse;shape=cloud;whiteSpace=wrap;html=1;" parent="1" vertex="1">
          <mxGeometry x="170" y="370" width="120" height="80" as="geometry" />
        </mxCell>
        <mxCell id="7EBTmmeYs9aogz_d6NEe-4" value="DataPushServer" style="ellipse;whiteSpace=wrap;html=1;" parent="1" vertex="1">
          <mxGeometry x="400" y="310" width="120" height="80" as="geometry" />
        </mxCell>
        <mxCell id="7EBTmmeYs9aogz_d6NEe-5" value="third" style="ellipse;whiteSpace=wrap;html=1;" parent="1" vertex="1">
          <mxGeometry x="630" y="310" width="120" height="80" as="geometry" />
        </mxCell>
        <mxCell id="7EBTmmeYs9aogz_d6NEe-7" value="" style="endArrow=classic;html=1;exitX=0;exitY=0.625;exitDx=0;exitDy=0;exitPerimeter=0;entryX=1;entryY=0.5;entryDx=0;entryDy=0;" parent="1" source="7EBTmmeYs9aogz_d6NEe-1" target="7EBTmmeYs9aogz_d6NEe-2" edge="1">
          <mxGeometry width="50" height="50" relative="1" as="geometry">
            <mxPoint x="440" y="580" as="sourcePoint" />
            <mxPoint x="490" y="530" as="targetPoint" />
          </mxGeometry>
        </mxCell>
        <mxCell id="7EBTmmeYs9aogz_d6NEe-9" value="" style="endArrow=classic;html=1;exitX=0;exitY=0.5;exitDx=0;exitDy=0;entryX=0.875;entryY=0.5;entryDx=0;entryDy=0;entryPerimeter=0;" parent="1" source="7EBTmmeYs9aogz_d6NEe-4" target="7EBTmmeYs9aogz_d6NEe-3" edge="1">
          <mxGeometry width="50" height="50" relative="1" as="geometry">
            <mxPoint x="490" y="600" as="sourcePoint" />
            <mxPoint x="540" y="550" as="targetPoint" />
          </mxGeometry>
        </mxCell>
        <mxCell id="7EBTmmeYs9aogz_d6NEe-11" value="" style="endArrow=classic;html=1;exitX=1;exitY=0.5;exitDx=0;exitDy=0;entryX=0;entryY=0.5;entryDx=0;entryDy=0;" parent="1" source="7EBTmmeYs9aogz_d6NEe-4" edge="1">
          <mxGeometry width="50" height="50" relative="1" as="geometry">
            <mxPoint x="490" y="600" as="sourcePoint" />
            <mxPoint x="630" y="350" as="targetPoint" />
          </mxGeometry>
        </mxCell>
        <mxCell id="7EBTmmeYs9aogz_d6NEe-12" value="" style="endArrow=classic;html=1;exitX=0.5;exitY=0;exitDx=0;exitDy=0;entryX=0.667;entryY=1.038;entryDx=0;entryDy=0;entryPerimeter=0;" parent="1" source="7EBTmmeYs9aogz_d6NEe-4" target="7EBTmmeYs9aogz_d6NEe-1" edge="1">
          <mxGeometry width="50" height="50" relative="1" as="geometry">
            <mxPoint x="440" y="580" as="sourcePoint" />
            <mxPoint x="490" y="530" as="targetPoint" />
          </mxGeometry>
        </mxCell>
        <mxCell id="7EBTmmeYs9aogz_d6NEe-13" value="" style="endArrow=classic;html=1;exitX=0.35;exitY=1;exitDx=0;exitDy=0;exitPerimeter=0;entryX=0.342;entryY=0;entryDx=0;entryDy=0;entryPerimeter=0;" parent="1" source="7EBTmmeYs9aogz_d6NEe-1" target="7EBTmmeYs9aogz_d6NEe-4" edge="1">
          <mxGeometry width="50" height="50" relative="1" as="geometry">
            <mxPoint x="440" y="580" as="sourcePoint" />
            <mxPoint x="490" y="530" as="targetPoint" />
          </mxGeometry>
        </mxCell>
        <mxCell id="7EBTmmeYs9aogz_d6NEe-14" value="api5" style="ellipse;shape=cloud;whiteSpace=wrap;html=1;" parent="1" vertex="1">
          <mxGeometry x="510" y="120" width="120" height="80" as="geometry" />
        </mxCell>
        <mxCell id="7EBTmmeYs9aogz_d6NEe-18" value="app" style="rounded=1;whiteSpace=wrap;html=1;" parent="1" vertex="1">
          <mxGeometry x="410" y="-30" width="120" height="60" as="geometry" />
        </mxCell>
        <mxCell id="7EBTmmeYs9aogz_d6NEe-19" value="Actor" style="shape=umlActor;verticalLabelPosition=bottom;verticalAlign=top;html=1;outlineConnect=0;" parent="1" vertex="1">
          <mxGeometry x="200" y="-30" width="30" height="60" as="geometry" />
        </mxCell>
        <mxCell id="7EBTmmeYs9aogz_d6NEe-22" value="" style="endArrow=classic;html=1;entryX=0;entryY=0.5;entryDx=0;entryDy=0;" parent="1" target="7EBTmmeYs9aogz_d6NEe-18" edge="1">
          <mxGeometry width="50" height="50" relative="1" as="geometry">
            <mxPoint x="240" y="10" as="sourcePoint" />
            <mxPoint x="470" y="180" as="targetPoint" />
          </mxGeometry>
        </mxCell>
        <mxCell id="7EBTmmeYs9aogz_d6NEe-23" value="" style="endArrow=classic;html=1;exitX=0.5;exitY=1;exitDx=0;exitDy=0;" parent="1" source="7EBTmmeYs9aogz_d6NEe-18" edge="1">
          <mxGeometry width="50" height="50" relative="1" as="geometry">
            <mxPoint x="420" y="230" as="sourcePoint" />
            <mxPoint x="560" y="130" as="targetPoint" />
          </mxGeometry>
        </mxCell>
        <mxCell id="7EBTmmeYs9aogz_d6NEe-24" value="" style="endArrow=classic;html=1;exitX=0.16;exitY=0.55;exitDx=0;exitDy=0;exitPerimeter=0;entryX=1;entryY=0;entryDx=0;entryDy=52.5;entryPerimeter=0;" parent="1" source="7EBTmmeYs9aogz_d6NEe-14" target="7EBTmmeYs9aogz_d6NEe-1" edge="1">
          <mxGeometry width="50" height="50" relative="1" as="geometry">
            <mxPoint x="420" y="230" as="sourcePoint" />
            <mxPoint x="470" y="180" as="targetPoint" />
          </mxGeometry>
        </mxCell>
        <mxCell id="7EBTmmeYs9aogz_d6NEe-25" value="upload health data" style="text;html=1;strokeColor=none;fillColor=none;align=center;verticalAlign=middle;whiteSpace=wrap;rounded=0;" parent="1" vertex="1">
          <mxGeometry x="510" y="60" width="150" height="20" as="geometry" />
        </mxCell>
        <mxCell id="7EBTmmeYs9aogz_d6NEe-26" value="insert" style="text;html=1;strokeColor=none;fillColor=none;align=center;verticalAlign=middle;whiteSpace=wrap;rounded=0;" parent="1" vertex="1">
          <mxGeometry x="470" y="180" width="40" height="20" as="geometry" />
        </mxCell>
        <mxCell id="7EBTmmeYs9aogz_d6NEe-27" value="binlog" style="text;html=1;strokeColor=none;fillColor=none;align=center;verticalAlign=middle;whiteSpace=wrap;rounded=0;" parent="1" vertex="1">
          <mxGeometry x="300" y="140" width="40" height="20" as="geometry" />
        </mxCell>
        <mxCell id="7EBTmmeYs9aogz_d6NEe-32" style="edgeStyle=orthogonalEdgeStyle;rounded=0;orthogonalLoop=1;jettySize=auto;html=1;exitX=0.433;exitY=1.013;exitDx=0;exitDy=0;exitPerimeter=0;" parent="1" source="7EBTmmeYs9aogz_d6NEe-2" edge="1">
          <mxGeometry relative="1" as="geometry">
            <mxPoint x="110" y="260" as="targetPoint" />
            <Array as="points">
              <mxPoint x="192" y="240" />
              <mxPoint x="110" y="240" />
            </Array>
          </mxGeometry>
        </mxCell>
        <mxCell id="7EBTmmeYs9aogz_d6NEe-28" value="push to kafka" style="text;html=1;strokeColor=none;fillColor=none;align=center;verticalAlign=middle;whiteSpace=wrap;rounded=0;" parent="1" vertex="1">
          <mxGeometry x="155" y="350" width="90" height="20" as="geometry" />
        </mxCell>
        <mxCell id="7EBTmmeYs9aogz_d6NEe-29" value="Listener server" style="ellipse;whiteSpace=wrap;html=1;" parent="1" vertex="1">
          <mxGeometry x="50" y="260" width="120" height="80" as="geometry" />
        </mxCell>
        <mxCell id="7EBTmmeYs9aogz_d6NEe-33" value="" style="endArrow=classic;html=1;exitX=0.5;exitY=1;exitDx=0;exitDy=0;entryX=0.07;entryY=0.4;entryDx=0;entryDy=0;entryPerimeter=0;" parent="1" target="7EBTmmeYs9aogz_d6NEe-3" edge="1">
          <mxGeometry width="50" height="50" relative="1" as="geometry">
            <mxPoint x="110" y="340" as="sourcePoint" />
            <mxPoint x="470" y="290" as="targetPoint" />
          </mxGeometry>
        </mxCell>
        <mxCell id="7EBTmmeYs9aogz_d6NEe-34" value="pull table cud" style="text;html=1;strokeColor=none;fillColor=none;align=center;verticalAlign=middle;whiteSpace=wrap;rounded=0;" parent="1" vertex="1">
          <mxGeometry x="280" y="350" width="80" height="20" as="geometry" />
        </mxCell>
        <mxCell id="7EBTmmeYs9aogz_d6NEe-35" value="push health data" style="text;html=1;strokeColor=none;fillColor=none;align=center;verticalAlign=middle;whiteSpace=wrap;rounded=0;" parent="1" vertex="1">
          <mxGeometry x="520" y="320" width="100" height="20" as="geometry" />
        </mxCell>
        <mxCell id="7EBTmmeYs9aogz_d6NEe-36" value="operate db" style="text;html=1;strokeColor=none;fillColor=none;align=center;verticalAlign=middle;whiteSpace=wrap;rounded=0;" parent="1" vertex="1">
          <mxGeometry x="370" y="240" width="86" height="20" as="geometry" />
        </mxCell>
        <mxCell id="7EBTmmeYs9aogz_d6NEe-37" value="table cud" style="text;html=1;strokeColor=none;fillColor=none;align=center;verticalAlign=middle;whiteSpace=wrap;rounded=0;" parent="1" vertex="1">
          <mxGeometry x="120" y="210" width="40" height="20" as="geometry" />
        </mxCell>
        <mxCell id="7EBTmmeYs9aogz_d6NEe-38" value="&lt;span style=&quot;color: rgb(51 , 51 , 51) ; font-family: &amp;#34;helvetica neue&amp;#34; , &amp;#34;helvetica&amp;#34; , &amp;#34;arial&amp;#34; , &amp;#34;pingfang sc&amp;#34; , &amp;#34;hiragino sans gb&amp;#34; , &amp;#34;microsoft yahei&amp;#34; , &amp;#34;wenquanyi micro hei&amp;#34; , sans-serif ; background-color: rgb(255 , 255 , 255)&quot;&gt;Persistence&lt;/span&gt;" style="text;html=1;strokeColor=none;fillColor=none;align=center;verticalAlign=middle;whiteSpace=wrap;rounded=0;" parent="1" vertex="1">
          <mxGeometry x="210" y="450" width="40" height="20" as="geometry" />
        </mxCell>
        <mxCell id="7EBTmmeYs9aogz_d6NEe-41" value="read push_token&amp;nbsp;&lt;br&gt;from db" style="rounded=1;whiteSpace=wrap;html=1;absoluteArcSize=1;arcSize=14;strokeWidth=2;" parent="1" vertex="1">
          <mxGeometry x="240" y="670" width="100" height="50" as="geometry" />
        </mxCell>
        <mxCell id="7EBTmmeYs9aogz_d6NEe-42" value="Start" style="strokeWidth=2;html=1;shape=mxgraph.flowchart.start_2;whiteSpace=wrap;" parent="1" vertex="1">
          <mxGeometry x="240" y="530" width="100" height="100" as="geometry" />
        </mxCell>
        <mxCell id="7EBTmmeYs9aogz_d6NEe-43" value="pull data from kafka" style="rounded=1;whiteSpace=wrap;html=1;absoluteArcSize=1;arcSize=14;strokeWidth=2;" parent="1" vertex="1">
          <mxGeometry x="240" y="760" width="100" height="50" as="geometry" />
        </mxCell>
        <mxCell id="7EBTmmeYs9aogz_d6NEe-45" value="update token list" style="rounded=1;whiteSpace=wrap;html=1;absoluteArcSize=1;arcSize=14;strokeWidth=2;" parent="1" vertex="1">
          <mxGeometry x="445" y="850" width="100" height="50" as="geometry" />
        </mxCell>
        <mxCell id="7EBTmmeYs9aogz_d6NEe-46" value="token list" style="shape=internalStorage;whiteSpace=wrap;html=1;dx=15;dy=15;rounded=1;arcSize=8;strokeWidth=2;" parent="1" vertex="1">
          <mxGeometry x="460" y="650" width="70" height="70" as="geometry" />
        </mxCell>
        <mxCell id="7EBTmmeYs9aogz_d6NEe-47" value="" style="endArrow=classic;html=1;exitX=1;exitY=0.5;exitDx=0;exitDy=0;entryX=-0.071;entryY=0.6;entryDx=0;entryDy=0;entryPerimeter=0;" parent="1" source="7EBTmmeYs9aogz_d6NEe-41" target="7EBTmmeYs9aogz_d6NEe-46" edge="1">
          <mxGeometry width="50" height="50" relative="1" as="geometry">
            <mxPoint x="390" y="1020" as="sourcePoint" />
            <mxPoint x="440" y="970" as="targetPoint" />
          </mxGeometry>
        </mxCell>
        <mxCell id="7EBTmmeYs9aogz_d6NEe-48" value="create token list" style="text;html=1;strokeColor=none;fillColor=none;align=center;verticalAlign=middle;whiteSpace=wrap;rounded=0;" parent="1" vertex="1">
          <mxGeometry x="370" y="660" width="60" height="20" as="geometry" />
        </mxCell>
        <mxCell id="7EBTmmeYs9aogz_d6NEe-49" value="" style="endArrow=classic;html=1;exitX=0.5;exitY=1;exitDx=0;exitDy=0;exitPerimeter=0;entryX=0.5;entryY=0;entryDx=0;entryDy=0;" parent="1" source="7EBTmmeYs9aogz_d6NEe-42" target="7EBTmmeYs9aogz_d6NEe-41" edge="1">
          <mxGeometry width="50" height="50" relative="1" as="geometry">
            <mxPoint x="390" y="1000" as="sourcePoint" />
            <mxPoint x="440" y="950" as="targetPoint" />
          </mxGeometry>
        </mxCell>
        <mxCell id="7EBTmmeYs9aogz_d6NEe-50" value="" style="endArrow=classic;html=1;exitX=0.5;exitY=1;exitDx=0;exitDy=0;" parent="1" source="7EBTmmeYs9aogz_d6NEe-41" target="7EBTmmeYs9aogz_d6NEe-43" edge="1">
          <mxGeometry width="50" height="50" relative="1" as="geometry">
            <mxPoint x="390" y="1000" as="sourcePoint" />
            <mxPoint x="440" y="950" as="targetPoint" />
          </mxGeometry>
        </mxCell>
        <mxCell id="7EBTmmeYs9aogz_d6NEe-52" value="" style="endArrow=classic;html=1;exitX=0.5;exitY=1;exitDx=0;exitDy=0;" parent="1" source="7EBTmmeYs9aogz_d6NEe-43" edge="1">
          <mxGeometry width="50" height="50" relative="1" as="geometry">
            <mxPoint x="339" y="885" as="sourcePoint" />
            <mxPoint x="440" y="880" as="targetPoint" />
          </mxGeometry>
        </mxCell>
        <mxCell id="7EBTmmeYs9aogz_d6NEe-98" value="token" style="edgeLabel;html=1;align=center;verticalAlign=middle;resizable=0;points=[];" parent="7EBTmmeYs9aogz_d6NEe-52" vertex="1" connectable="0">
          <mxGeometry x="0.1504" y="-3" relative="1" as="geometry">
            <mxPoint as="offset" />
          </mxGeometry>
        </mxCell>
        <mxCell id="7EBTmmeYs9aogz_d6NEe-54" value="update" style="endArrow=classic;html=1;exitX=0.5;exitY=0;exitDx=0;exitDy=0;entryX=0.5;entryY=1;entryDx=0;entryDy=0;" parent="1" source="7EBTmmeYs9aogz_d6NEe-45" target="7EBTmmeYs9aogz_d6NEe-46" edge="1">
          <mxGeometry width="50" height="50" relative="1" as="geometry">
            <mxPoint x="390" y="1010" as="sourcePoint" />
            <mxPoint x="440" y="960" as="targetPoint" />
          </mxGeometry>
        </mxCell>
        <mxCell id="7EBTmmeYs9aogz_d6NEe-58" value="blood pressure handler" style="rounded=1;whiteSpace=wrap;html=1;absoluteArcSize=1;arcSize=14;strokeWidth=2;" parent="1" vertex="1">
          <mxGeometry x="100" y="1100" width="100" height="50" as="geometry" />
        </mxCell>
        <mxCell id="7EBTmmeYs9aogz_d6NEe-59" value="blood glucose handler" style="rounded=1;whiteSpace=wrap;html=1;absoluteArcSize=1;arcSize=14;strokeWidth=2;" parent="1" vertex="1">
          <mxGeometry x="239" y="1100" width="100" height="50" as="geometry" />
        </mxCell>
        <mxCell id="7EBTmmeYs9aogz_d6NEe-60" value="blood oxygen handler" style="rounded=1;whiteSpace=wrap;html=1;absoluteArcSize=1;arcSize=14;strokeWidth=2;" parent="1" vertex="1">
          <mxGeometry x="380" y="1100" width="100" height="50" as="geometry" />
        </mxCell>
        <mxCell id="7EBTmmeYs9aogz_d6NEe-61" value="........" style="text;html=1;strokeColor=none;fillColor=none;align=center;verticalAlign=middle;whiteSpace=wrap;rounded=0;" parent="1" vertex="1">
          <mxGeometry x="520" y="1115" width="40" height="20" as="geometry" />
        </mxCell>
        <mxCell id="7EBTmmeYs9aogz_d6NEe-63" value="" style="endArrow=classic;html=1;exitX=0.5;exitY=1;exitDx=0;exitDy=0;exitPerimeter=0;entryX=0.5;entryY=0;entryDx=0;entryDy=0;" parent="1" target="7EBTmmeYs9aogz_d6NEe-58" edge="1">
          <mxGeometry width="50" height="50" relative="1" as="geometry">
            <mxPoint x="290" y="1050" as="sourcePoint" />
            <mxPoint x="440" y="1230" as="targetPoint" />
            <Array as="points">
              <mxPoint x="150" y="1050" />
            </Array>
          </mxGeometry>
        </mxCell>
        <mxCell id="7EBTmmeYs9aogz_d6NEe-64" value="" style="endArrow=classic;html=1;entryX=0.5;entryY=0;entryDx=0;entryDy=0;" parent="1" target="7EBTmmeYs9aogz_d6NEe-59" edge="1">
          <mxGeometry width="50" height="50" relative="1" as="geometry">
            <mxPoint x="290" y="1050" as="sourcePoint" />
            <mxPoint x="440" y="1230" as="targetPoint" />
          </mxGeometry>
        </mxCell>
        <mxCell id="7EBTmmeYs9aogz_d6NEe-65" value="" style="endArrow=classic;html=1;exitX=0.5;exitY=1;exitDx=0;exitDy=0;exitPerimeter=0;entryX=0.5;entryY=0;entryDx=0;entryDy=0;" parent="1" target="7EBTmmeYs9aogz_d6NEe-60" edge="1">
          <mxGeometry width="50" height="50" relative="1" as="geometry">
            <mxPoint x="290" y="1050" as="sourcePoint" />
            <mxPoint x="440" y="1230" as="targetPoint" />
            <Array as="points">
              <mxPoint x="430" y="1050" />
            </Array>
          </mxGeometry>
        </mxCell>
        <mxCell id="7EBTmmeYs9aogz_d6NEe-66" value="" style="endArrow=classic;html=1;entryX=0.5;entryY=0;entryDx=0;entryDy=0;" parent="1" target="7EBTmmeYs9aogz_d6NEe-61" edge="1">
          <mxGeometry width="50" height="50" relative="1" as="geometry">
            <mxPoint x="290" y="1050" as="sourcePoint" />
            <mxPoint x="440" y="1230" as="targetPoint" />
            <Array as="points">
              <mxPoint x="540" y="1050" />
            </Array>
          </mxGeometry>
        </mxCell>
        <mxCell id="7EBTmmeYs9aogz_d6NEe-68" value="push to third" style="rounded=1;whiteSpace=wrap;html=1;absoluteArcSize=1;arcSize=14;strokeWidth=2;" parent="1" vertex="1">
          <mxGeometry x="240" y="1200" width="100" height="50" as="geometry" />
        </mxCell>
        <mxCell id="7EBTmmeYs9aogz_d6NEe-70" value="success?" style="strokeWidth=2;html=1;shape=mxgraph.flowchart.decision;whiteSpace=wrap;" parent="1" vertex="1">
          <mxGeometry x="239" y="1290" width="100" height="70" as="geometry" />
        </mxCell>
        <mxCell id="7EBTmmeYs9aogz_d6NEe-71" value="" style="endArrow=classic;html=1;exitX=0.5;exitY=1;exitDx=0;exitDy=0;entryX=0.5;entryY=0;entryDx=0;entryDy=0;" parent="1" source="7EBTmmeYs9aogz_d6NEe-59" target="7EBTmmeYs9aogz_d6NEe-68" edge="1">
          <mxGeometry width="50" height="50" relative="1" as="geometry">
            <mxPoint x="390" y="1420" as="sourcePoint" />
            <mxPoint x="440" y="1370" as="targetPoint" />
          </mxGeometry>
        </mxCell>
        <mxCell id="7EBTmmeYs9aogz_d6NEe-73" value="" style="endArrow=classic;html=1;entryX=0.5;entryY=0;entryDx=0;entryDy=0;entryPerimeter=0;" parent="1" source="7EBTmmeYs9aogz_d6NEe-68" target="7EBTmmeYs9aogz_d6NEe-70" edge="1">
          <mxGeometry width="50" height="50" relative="1" as="geometry">
            <mxPoint x="280" y="1300" as="sourcePoint" />
            <mxPoint x="330" y="1250" as="targetPoint" />
          </mxGeometry>
        </mxCell>
        <mxCell id="7EBTmmeYs9aogz_d6NEe-75" value="insert or update&lt;br&gt;push_data_sign&lt;br&gt;LastDataId" style="rounded=1;whiteSpace=wrap;html=1;absoluteArcSize=1;arcSize=14;strokeWidth=2;" parent="1" vertex="1">
          <mxGeometry x="245" y="1390" width="100" height="50" as="geometry" />
        </mxCell>
        <mxCell id="7EBTmmeYs9aogz_d6NEe-76" value="yes" style="endArrow=classic;html=1;exitX=0.5;exitY=1;exitDx=0;exitDy=0;exitPerimeter=0;entryX=0.43;entryY=-0.08;entryDx=0;entryDy=0;entryPerimeter=0;" parent="1" source="7EBTmmeYs9aogz_d6NEe-70" target="7EBTmmeYs9aogz_d6NEe-75" edge="1">
          <mxGeometry width="50" height="50" relative="1" as="geometry">
            <mxPoint x="390" y="1420" as="sourcePoint" />
            <mxPoint x="440" y="1370" as="targetPoint" />
          </mxGeometry>
        </mxCell>
        <mxCell id="7EBTmmeYs9aogz_d6NEe-78" value="" style="endArrow=classic;html=1;exitX=0;exitY=0.5;exitDx=0;exitDy=0;entryX=0;entryY=0.5;entryDx=0;entryDy=0;" parent="1" source="7EBTmmeYs9aogz_d6NEe-75" target="7EBTmmeYs9aogz_d6NEe-43" edge="1">
          <mxGeometry width="50" height="50" relative="1" as="geometry">
            <mxPoint x="390" y="1290" as="sourcePoint" />
            <mxPoint x="440" y="1240" as="targetPoint" />
            <Array as="points">
              <mxPoint x="70" y="1415" />
              <mxPoint x="70" y="785" />
            </Array>
          </mxGeometry>
        </mxCell>
        <mxCell id="7EBTmmeYs9aogz_d6NEe-80" value="" style="endArrow=classic;html=1;exitX=0.5;exitY=1;exitDx=0;exitDy=0;exitPerimeter=0;" parent="1" source="7EBTmmeYs9aogz_d6NEe-88" edge="1">
          <mxGeometry width="50" height="50" relative="1" as="geometry">
            <mxPoint x="289" y="920" as="sourcePoint" />
            <mxPoint x="290" y="1100" as="targetPoint" />
          </mxGeometry>
        </mxCell>
        <mxCell id="7EBTmmeYs9aogz_d6NEe-97" value="no" style="edgeLabel;html=1;align=center;verticalAlign=middle;resizable=0;points=[];" parent="7EBTmmeYs9aogz_d6NEe-80" vertex="1" connectable="0">
          <mxGeometry x="-0.3779" y="-1" relative="1" as="geometry">
            <mxPoint as="offset" />
          </mxGeometry>
        </mxCell>
        <mxCell id="7EBTmmeYs9aogz_d6NEe-85" value="refresh toke" style="rounded=1;whiteSpace=wrap;html=1;absoluteArcSize=1;arcSize=14;strokeWidth=2;" parent="1" vertex="1">
          <mxGeometry x="570" y="1300" width="100" height="50" as="geometry" />
        </mxCell>
        <mxCell id="7EBTmmeYs9aogz_d6NEe-86" value="" style="endArrow=classic;html=1;entryX=0;entryY=0.5;entryDx=0;entryDy=0;" parent="1" source="7EBTmmeYs9aogz_d6NEe-94" target="7EBTmmeYs9aogz_d6NEe-85" edge="1">
          <mxGeometry width="50" height="50" relative="1" as="geometry">
            <mxPoint x="340" y="975" as="sourcePoint" />
            <mxPoint x="440" y="1010" as="targetPoint" />
          </mxGeometry>
        </mxCell>
        <mxCell id="7EBTmmeYs9aogz_d6NEe-101" value="yes" style="edgeLabel;html=1;align=center;verticalAlign=middle;resizable=0;points=[];" parent="7EBTmmeYs9aogz_d6NEe-86" vertex="1" connectable="0">
          <mxGeometry x="-0.0571" y="2" relative="1" as="geometry">
            <mxPoint as="offset" />
          </mxGeometry>
        </mxCell>
        <mxCell id="7EBTmmeYs9aogz_d6NEe-88" value="refresh&lt;br&gt;token expire?" style="strokeWidth=2;html=1;shape=mxgraph.flowchart.decision;whiteSpace=wrap;" parent="1" vertex="1">
          <mxGeometry x="239" y="940" width="100" height="70" as="geometry" />
        </mxCell>
        <mxCell id="7EBTmmeYs9aogz_d6NEe-90" value="" style="endArrow=classic;html=1;exitX=0;exitY=0.5;exitDx=0;exitDy=0;exitPerimeter=0;" parent="1" source="7EBTmmeYs9aogz_d6NEe-88" edge="1">
          <mxGeometry width="50" height="50" relative="1" as="geometry">
            <mxPoint x="390" y="1060" as="sourcePoint" />
            <mxPoint x="70" y="975" as="targetPoint" />
          </mxGeometry>
        </mxCell>
        <mxCell id="7EBTmmeYs9aogz_d6NEe-100" value="yes" style="edgeLabel;html=1;align=center;verticalAlign=middle;resizable=0;points=[];" parent="7EBTmmeYs9aogz_d6NEe-90" vertex="1" connectable="0">
          <mxGeometry x="-0.2899" y="1" relative="1" as="geometry">
            <mxPoint as="offset" />
          </mxGeometry>
        </mxCell>
        <mxCell id="7EBTmmeYs9aogz_d6NEe-94" value="token expire" style="strokeWidth=2;html=1;shape=mxgraph.flowchart.decision;whiteSpace=wrap;" parent="1" vertex="1">
          <mxGeometry x="400" y="1290" width="100" height="70" as="geometry" />
        </mxCell>
        <mxCell id="7EBTmmeYs9aogz_d6NEe-95" value="" style="endArrow=classic;html=1;exitX=1;exitY=0.5;exitDx=0;exitDy=0;exitPerimeter=0;entryX=0;entryY=0.5;entryDx=0;entryDy=0;entryPerimeter=0;" parent="1" source="7EBTmmeYs9aogz_d6NEe-70" target="7EBTmmeYs9aogz_d6NEe-94" edge="1">
          <mxGeometry width="50" height="50" relative="1" as="geometry">
            <mxPoint x="390" y="1060" as="sourcePoint" />
            <mxPoint x="440" y="1010" as="targetPoint" />
          </mxGeometry>
        </mxCell>
        <mxCell id="7EBTmmeYs9aogz_d6NEe-96" value="no" style="edgeLabel;html=1;align=center;verticalAlign=middle;resizable=0;points=[];" parent="7EBTmmeYs9aogz_d6NEe-95" vertex="1" connectable="0">
          <mxGeometry x="0.0164" y="2" relative="1" as="geometry">
            <mxPoint as="offset" />
          </mxGeometry>
        </mxCell>
        <mxCell id="7EBTmmeYs9aogz_d6NEe-103" value="success？" style="strokeWidth=2;html=1;shape=mxgraph.flowchart.decision;whiteSpace=wrap;" parent="1" vertex="1">
          <mxGeometry x="570" y="1400" width="100" height="70" as="geometry" />
        </mxCell>
        <mxCell id="7EBTmmeYs9aogz_d6NEe-104" value="" style="endArrow=classic;html=1;exitX=0.5;exitY=1;exitDx=0;exitDy=0;entryX=0.5;entryY=0;entryDx=0;entryDy=0;entryPerimeter=0;" parent="1" source="7EBTmmeYs9aogz_d6NEe-85" target="7EBTmmeYs9aogz_d6NEe-103" edge="1">
          <mxGeometry width="50" height="50" relative="1" as="geometry">
            <mxPoint x="390" y="1550" as="sourcePoint" />
            <mxPoint x="440" y="1500" as="targetPoint" />
          </mxGeometry>
        </mxCell>
        <mxCell id="7EBTmmeYs9aogz_d6NEe-105" value="update push_token&amp;nbsp;" style="rounded=1;whiteSpace=wrap;html=1;absoluteArcSize=1;arcSize=14;strokeWidth=2;" parent="1" vertex="1">
          <mxGeometry x="710" y="1410" width="100" height="50" as="geometry" />
        </mxCell>
        <mxCell id="7EBTmmeYs9aogz_d6NEe-106" value="&lt;div&gt;&lt;span&gt;update push_token IsTokenExpires = true&lt;/span&gt;&lt;/div&gt;&lt;span style=&quot;font-size: medium&quot;&gt;&lt;/span&gt;" style="rounded=1;whiteSpace=wrap;html=1;absoluteArcSize=1;arcSize=14;strokeWidth=2;" parent="1" vertex="1">
          <mxGeometry x="570" y="1500" width="100" height="50" as="geometry" />
        </mxCell>
        <mxCell id="7EBTmmeYs9aogz_d6NEe-107" value="" style="endArrow=classic;html=1;entryX=0;entryY=0.5;entryDx=0;entryDy=0;" parent="1" target="7EBTmmeYs9aogz_d6NEe-105" edge="1">
          <mxGeometry width="50" height="50" relative="1" as="geometry">
            <mxPoint x="670" y="1435" as="sourcePoint" />
            <mxPoint x="440" y="1180" as="targetPoint" />
          </mxGeometry>
        </mxCell>
        <mxCell id="7EBTmmeYs9aogz_d6NEe-109" value="yes" style="edgeLabel;html=1;align=center;verticalAlign=middle;resizable=0;points=[];" parent="7EBTmmeYs9aogz_d6NEe-107" vertex="1" connectable="0">
          <mxGeometry x="-0.45" y="2" relative="1" as="geometry">
            <mxPoint as="offset" />
          </mxGeometry>
        </mxCell>
        <mxCell id="7EBTmmeYs9aogz_d6NEe-108" value="" style="endArrow=classic;html=1;exitX=0.5;exitY=1;exitDx=0;exitDy=0;exitPerimeter=0;entryX=0.5;entryY=0;entryDx=0;entryDy=0;" parent="1" source="7EBTmmeYs9aogz_d6NEe-103" target="7EBTmmeYs9aogz_d6NEe-106" edge="1">
          <mxGeometry width="50" height="50" relative="1" as="geometry">
            <mxPoint x="390" y="1230" as="sourcePoint" />
            <mxPoint x="440" y="1180" as="targetPoint" />
          </mxGeometry>
        </mxCell>
        <mxCell id="7EBTmmeYs9aogz_d6NEe-110" value="no" style="edgeLabel;html=1;align=center;verticalAlign=middle;resizable=0;points=[];" parent="7EBTmmeYs9aogz_d6NEe-108" vertex="1" connectable="0">
          <mxGeometry x="-0.32" relative="1" as="geometry">
            <mxPoint as="offset" />
          </mxGeometry>
        </mxCell>
        <mxCell id="7EBTmmeYs9aogz_d6NEe-111" value="begin select data from db and push to third where &amp;gt;DataId&amp;nbsp; &amp;amp; &amp;gt; CreateTime" style="rounded=1;whiteSpace=wrap;html=1;absoluteArcSize=1;arcSize=14;strokeWidth=2;" parent="1" vertex="1">
          <mxGeometry x="660" y="850" width="100" height="50" as="geometry" />
        </mxCell>
        <mxCell id="7EBTmmeYs9aogz_d6NEe-112" value="" style="endArrow=classic;html=1;exitX=1;exitY=0.5;exitDx=0;exitDy=0;entryX=0;entryY=0.5;entryDx=0;entryDy=0;" parent="1" source="7EBTmmeYs9aogz_d6NEe-45" target="7EBTmmeYs9aogz_d6NEe-111" edge="1">
          <mxGeometry width="50" height="50" relative="1" as="geometry">
            <mxPoint x="390" y="1010" as="sourcePoint" />
            <mxPoint x="640" y="950" as="targetPoint" />
          </mxGeometry>
        </mxCell>
        <mxCell id="7EBTmmeYs9aogz_d6NEe-113" value="userid in token list?" style="strokeWidth=2;html=1;shape=mxgraph.flowchart.decision;whiteSpace=wrap;" parent="1" vertex="1">
          <mxGeometry x="239" y="840" width="100" height="70" as="geometry" />
        </mxCell>
        <mxCell id="7EBTmmeYs9aogz_d6NEe-117" value="" style="endArrow=classic;html=1;" parent="1" edge="1">
          <mxGeometry width="50" height="50" relative="1" as="geometry">
            <mxPoint x="290" y="810" as="sourcePoint" />
            <mxPoint x="290" y="840" as="targetPoint" />
          </mxGeometry>
        </mxCell>
        <mxCell id="7EBTmmeYs9aogz_d6NEe-118" value="yes" style="endArrow=classic;html=1;exitX=0.5;exitY=1;exitDx=0;exitDy=0;exitPerimeter=0;" parent="1" source="7EBTmmeYs9aogz_d6NEe-113" edge="1">
          <mxGeometry width="50" height="50" relative="1" as="geometry">
            <mxPoint x="390" y="1010" as="sourcePoint" />
            <mxPoint x="289" y="940" as="targetPoint" />
          </mxGeometry>
        </mxCell>
        <mxCell id="7EBTmmeYs9aogz_d6NEe-119" value="" style="endArrow=classic;html=1;exitX=0;exitY=0.5;exitDx=0;exitDy=0;exitPerimeter=0;" parent="1" source="7EBTmmeYs9aogz_d6NEe-113" edge="1">
          <mxGeometry width="50" height="50" relative="1" as="geometry">
            <mxPoint x="390" y="1010" as="sourcePoint" />
            <mxPoint x="70" y="875" as="targetPoint" />
          </mxGeometry>
        </mxCell>
        <mxCell id="7EBTmmeYs9aogz_d6NEe-120" value="no" style="edgeLabel;html=1;align=center;verticalAlign=middle;resizable=0;points=[];" parent="7EBTmmeYs9aogz_d6NEe-119" vertex="1" connectable="0">
          <mxGeometry x="0.0533" y="2" relative="1" as="geometry">
            <mxPoint as="offset" />
          </mxGeometry>
        </mxCell>
        <mxCell id="7EBTmmeYs9aogz_d6NEe-122" value="" style="endArrow=classic;html=1;exitX=0.5;exitY=1;exitDx=0;exitDy=0;entryX=1;entryY=0.5;entryDx=0;entryDy=0;" parent="1" source="7EBTmmeYs9aogz_d6NEe-111" target="7EBTmmeYs9aogz_d6NEe-68" edge="1">
          <mxGeometry width="50" height="50" relative="1" as="geometry">
            <mxPoint x="390" y="1080" as="sourcePoint" />
            <mxPoint x="440" y="1030" as="targetPoint" />
            <Array as="points">
              <mxPoint x="710" y="1225" />
            </Array>
          </mxGeometry>
        </mxCell>
      </root>
    </mxGraphModel>
  </diagram>
</mxfile>
